<?xml version="1.0" encoding="utf-8"?>
<svg version="1.0" width="28" height="28" viewBox="0 0 128 128" preserveAspectRatio="xMidYMid meet" xmlns="http://www.w3.org/2000/svg">
  <circle style="fill: rgb(67, 163, 61);" cx="99.523" cy="99.413" r="24.143"/>
  <path fill-rule="evenodd" clip-rule="evenodd" d="M 66.493 105.275 C 66.493 105.275 69.511 90.707 69.464 90.754 C 69.417 90.802 69.371 90.85 69.327 90.9 C 69.282 90.95 69.239 91.002 69.197 91.054 C 69.155 91.106 69.114 91.16 69.074 91.214 C 69.035 91.269 68.997 91.325 68.96 91.381 C 68.951 91.395 68.942 91.409 68.933 91.424 C 68.924 91.438 68.915 91.452 68.906 91.466 C 68.898 91.481 68.889 91.495 68.88 91.509 C 68.872 91.524 68.863 91.538 68.855 91.552 C 68.847 91.567 68.838 91.581 68.83 91.596 C 68.821 91.61 68.813 91.625 68.805 91.639 C 68.797 91.654 68.789 91.668 68.781 91.683 C 68.773 91.698 68.766 91.713 68.758 91.727 L 66.742 93.743 L 64.726 95.758 L 62.711 97.774 L 60.695 99.789 L 58.679 101.805 L 56.663 103.821 L 54.648 105.837 L 52.632 107.852 L 48.172 103.391 L 43.711 98.929 L 39.251 94.468 L 34.79 90.006 L 30.329 85.545 L 25.868 81.083 L 21.408 76.622 L 16.947 72.16 L 23.09 66.017 L 29.233 59.874 L 35.377 53.731 L 41.52 47.587 L 47.663 41.444 L 53.806 35.301 L 59.949 29.158 L 66.092 23.014 L 70.554 23.014 L 75.015 23.014 L 79.477 23.014 L 83.939 23.014 L 88.401 23.014 L 92.862 23.014 L 97.324 23.014 L 101.785 23.014 L 101.785 24.269 L 101.785 25.524 L 101.785 26.779 L 101.785 28.033 L 101.785 29.288 L 101.785 30.543 L 101.785 31.798 L 101.785 33.053 C 101.31 32.884 100.83 32.726 100.348 32.578 C 99.865 32.429 99.379 32.291 98.89 32.162 C 98.4 32.034 97.908 31.916 97.413 31.809 C 96.919 31.701 96.421 31.604 95.921 31.517 C 95.421 31.431 94.919 31.354 94.414 31.289 C 93.909 31.223 93.403 31.168 92.894 31.124 C 92.386 31.08 91.875 31.046 91.364 31.024 C 90.852 31.001 90.339 30.99 89.824 30.989 C 89.692 30.989 89.561 30.995 89.43 31.008 C 89.3 31.021 89.17 31.041 89.042 31.066 C 88.915 31.092 88.789 31.124 88.664 31.162 C 88.54 31.2 88.418 31.243 88.298 31.293 C 88.179 31.343 88.061 31.399 87.947 31.46 C 87.832 31.521 87.721 31.587 87.612 31.66 C 87.504 31.733 87.399 31.81 87.298 31.893 C 87.196 31.976 87.099 32.065 87.005 32.158 C 86.912 32.252 86.823 32.349 86.74 32.451 C 86.657 32.552 86.58 32.657 86.507 32.765 C 86.435 32.874 86.368 32.985 86.306 33.099 C 86.245 33.213 86.19 33.331 86.14 33.45 C 86.091 33.57 86.047 33.692 86.009 33.816 C 85.971 33.94 85.94 34.067 85.914 34.194 C 85.889 34.322 85.869 34.451 85.856 34.581 C 85.844 34.712 85.837 34.844 85.837 34.976 C 85.837 35.109 85.844 35.24 85.856 35.371 C 85.869 35.502 85.888 35.631 85.914 35.759 C 85.94 35.887 85.971 36.013 86.009 36.137 C 86.047 36.261 86.091 36.384 86.14 36.503 C 86.19 36.623 86.246 36.74 86.307 36.855 C 86.368 36.969 86.435 37.08 86.507 37.188 C 86.58 37.297 86.657 37.402 86.74 37.503 C 86.823 37.604 86.912 37.701 87.005 37.795 C 87.099 37.889 87.196 37.977 87.298 38.06 C 87.399 38.143 87.504 38.221 87.612 38.293 C 87.721 38.365 87.832 38.432 87.947 38.493 C 88.061 38.554 88.179 38.609 88.298 38.659 C 88.418 38.708 88.54 38.752 88.664 38.79 C 88.789 38.828 88.915 38.859 89.042 38.885 C 89.17 38.91 89.3 38.93 89.43 38.943 C 89.561 38.956 89.692 38.962 89.824 38.962 C 90.346 38.962 90.867 38.977 91.385 39.006 C 91.904 39.035 92.42 39.079 92.934 39.136 C 93.448 39.193 93.959 39.265 94.467 39.351 C 94.976 39.437 95.481 39.536 95.982 39.65 C 96.484 39.763 96.981 39.891 97.475 40.031 C 97.968 40.172 98.457 40.326 98.941 40.494 C 99.426 40.661 99.905 40.842 100.38 41.036 C 100.854 41.23 101.323 41.436 101.785 41.656 L 101.785 43.787 L 101.785 45.919 L 101.785 48.05 L 101.785 50.182 L 101.785 52.313 L 101.785 54.445 L 101.785 56.576 L 101.785 58.708 L 97.873 62.62 L 93.96 66.532 L 104.909 66.867 L 108.595 63.181 L 108.741 62.828 L 108.886 62.476 L 109.032 62.123 L 109.177 61.771 L 109.323 61.418 L 109.468 61.065 L 109.614 60.712 L 109.76 60.36 L 109.76 58.732 L 109.76 57.105 L 109.76 55.478 L 109.76 53.851 L 109.76 52.223 L 109.76 50.596 L 109.76 48.968 L 109.76 47.341 C 110.399 47.993 111.002 48.673 111.569 49.378 C 112.137 50.082 112.668 50.812 113.161 51.565 C 113.654 52.317 114.11 53.091 114.527 53.885 C 114.945 54.679 115.324 55.492 115.662 56.321 C 116.001 57.15 116.3 57.996 116.557 58.856 C 116.815 59.715 117.032 60.588 117.206 61.471 C 117.38 62.354 117.512 63.248 117.6 64.149 C 117.688 65.05 117.733 65.959 117.733 66.872 C 117.729 67.039 117.723 67.207 117.715 67.374 C 117.707 67.541 117.698 67.708 117.687 67.875 C 117.677 68.042 117.664 68.209 117.65 68.375 C 117.637 68.542 117.621 68.708 117.604 68.874 C 117.587 69.04 117.569 69.206 117.549 69.372 C 117.529 69.538 117.507 69.703 117.484 69.869 L 124.525 75.358 C 124.702 74.62 124.855 73.875 124.984 73.125 C 125.113 72.375 125.218 71.62 125.299 70.86 C 125.326 70.695 125.352 70.53 125.376 70.364 C 125.4 70.199 125.423 70.033 125.445 69.868 C 125.467 69.702 125.487 69.536 125.506 69.37 C 125.526 69.204 125.544 69.038 125.561 68.872 C 125.579 68.705 125.595 68.539 125.609 68.372 C 125.624 68.206 125.638 68.039 125.65 67.873 C 125.662 67.706 125.673 67.54 125.683 67.373 C 125.693 67.206 125.701 67.039 125.708 66.872 C 125.707 65.683 125.647 64.5 125.529 63.327 C 125.411 62.154 125.236 60.991 125.006 59.842 C 124.775 58.693 124.489 57.558 124.149 56.441 C 123.809 55.324 123.414 54.224 122.967 53.147 C 122.52 52.069 122.02 51.013 121.47 49.983 C 120.92 48.952 120.318 47.948 119.668 46.973 C 119.017 45.998 118.318 45.053 117.57 44.141 C 116.823 43.23 116.027 42.351 115.186 41.511 C 114.977 41.301 114.766 41.095 114.553 40.892 C 114.34 40.689 114.124 40.488 113.906 40.291 C 113.688 40.093 113.468 39.899 113.246 39.707 C 113.024 39.516 112.799 39.327 112.573 39.142 C 112.346 38.956 112.118 38.773 111.887 38.593 C 111.657 38.414 111.424 38.237 111.19 38.063 C 110.955 37.889 110.719 37.718 110.481 37.55 C 110.242 37.382 110.002 37.217 109.76 37.055 L 109.76 34.801 L 109.76 32.548 L 109.76 30.294 L 109.76 28.041 L 109.76 25.787 L 109.76 23.534 L 109.76 21.281 L 109.76 19.028 L 109.262 18.529 L 108.763 18.031 L 108.265 17.532 L 107.766 17.034 L 107.268 16.535 L 106.769 16.037 L 106.271 15.538 L 105.772 15.04 L 100.606 15.04 L 95.44 15.04 L 90.274 15.04 L 85.107 15.04 L 79.941 15.04 L 74.774 15.04 L 69.608 15.04 L 64.441 15.04 L 64.09 15.185 L 63.738 15.331 L 63.386 15.476 L 63.034 15.622 L 62.683 15.768 L 62.331 15.914 L 61.979 16.059 L 61.627 16.205 L 54.985 22.847 L 48.342 29.49 L 41.7 36.132 L 35.057 42.775 L 28.415 49.417 L 21.772 56.06 L 15.129 62.702 L 8.486 69.344 L 8.486 70.049 L 8.486 70.754 L 8.486 71.459 L 8.486 72.164 L 8.486 72.869 L 8.486 73.574 L 8.486 74.279 L 8.486 74.984 L 13.653 80.15 L 18.819 85.316 L 23.986 90.482 L 29.152 95.649 L 34.319 100.815 L 39.485 105.981 L 44.651 111.147 L 49.817 116.314 L 50.522 116.314 L 51.226 116.314 L 51.931 116.314 L 52.635 116.314 L 53.34 116.314 L 54.044 116.314 L 54.749 116.314 L 55.453 116.314 L 57.661 114.106 L 59.869 111.898 L 62.077 109.69 L 64.285 107.483 L 66.493 105.275 Z" fill="#C5C5C5" style=""/>
</svg>