<?xml version="1.0" standalone="no"?>
<!DOCTYPE svg PUBLIC "-//W3C//DTD SVG 20010904//EN"
 "http://www.w3.org/TR/2001/REC-SVG-20010904/DTD/svg10.dtd">
<svg version="1" xmlns="http://www.w3.org/2000/svg"
 width="24" height="24" viewBox="0 0 128 128"
 preserveAspectRatio="xMidYMid meet">

<g transform="matrix(0.1,0,0,-0.1,0,128)"
fill="#c5c5c5" stroke="none">
<path transform="matrix(1.1,0,0,1.1,-76.6,-99.7)" d="M 613.4 1226.9 c -33 -6 -53 -53 -45 -106 c 8 -58 24 -77 64 -78 l 31 -1 l -30 -13 c -16 -8 -50 -14 -76 -15 c -32 0 -58 -8 -92 -30 l -47 -30 l 0 -60 c 0 -56 2 -60 29 -74 c 16 -9 66 -18 111 -22 l 83 -7 l -69 -25 c -95 -35 -108 -58 -51 -92 c 26 -16 50 -20 123 -20 c 82 0 93 2 112 23 c 16 16 22 36 22 66 c 0 37 2 42 18 36 c 41 -16 71 -16 125 0 c 62 18 59 12 41 105 c -5 24 -5 24 9 6 c 14 -19 15 -19 71 4 c 55 22 57 24 50 54 c -9 44 -11 46 -48 46 c -37 0 -56 -15 -56 -46 c 0 -16 -11 -25 -43 -38 c -56 -21 -62 -20 -75 9 c -15 32 -62 61 -124 75 c -36 9 -48 17 -48 30 c 0 10 9 21 19 25 c 16 5 20 18 23 88 c 3 45 3 85 1 90 c -4 7 -91 8 -128 0 z m 429 -292 c 3 -5 -1 -11 -9 -15 c -9 -3 -15 0 -15 9 c 0 16 16 20 24 6 z m -319 -109 c -15 -16 -16 -15 -4 12 c 7 15 15 23 17 16 c 3 -7 -3 -19 -13 -28 z"/>
<path transform="matrix(1.1,0,0,1.1,-64.2,-37)" d="M 427.2 526.1 c -14 -27 -79 -119 -144 -205 c -107 -140 -118 -157 -101 -166 c 16 -10 14 -14 -20 -43 c -52 -43 -44 -65 24 -65 c 59 0 73 22 45 66 l -18 26 l 50 -6 c 44 -7 53 -4 90 22 c 22 16 85 77 139 136 c 119 127 129 130 235 64 c 64 -40 70 -46 113 -134 c 42 -84 48 -92 80 -98 c 19 -4 54 -3 78 0 l 43 7 l -23 -32 c -15 -21 -20 -36 -14 -42 c 6 -6 43 -9 84 -7 c 58 2 74 6 77 19 c 2 11 -9 21 -30 29 c -76 28 -81 31 -71 41 c 7 7 0 35 -23 87 c -19 42 -34 83 -34 90 c 0 8 -33 46 -73 85 c -39 40 -89 91 -109 114 c -36 41 -38 42 -87 36 l -50 -6 l 20 -38 l 19 -39 l -24 0 c -19 0 -26 7 -31 28 c -3 15 -14 33 -24 39 c -25 16 -61 -9 -61 -43 c 0 -20 -5 -24 -31 -24 c -27 0 -30 3 -23 23 c 3 12 11 28 17 35 c 13 16 11 17 -48 34 l -50 15 l -25 -48 z"/>
</g>
</svg>
