<?xml version="1.0" encoding="utf-8"?>
<svg version="1.0" width="28" height="28" viewBox="0 0 128 128" preserveAspectRatio="xMidYMid meet" xmlns="http://www.w3.org/2000/svg">
  <circle style="fill: rgb(73, 181, 68);" cx="99.846" cy="99.841" r="24.143"/>
  <path d="M 68.445 112.269 L 65.577 104.224 L 39.704 104.224 L 27.637 104.224 L 15.57 104.224 L 15.57 102.706 L 15.57 101.187 L 15.57 99.669 L 15.57 98.15 L 15.57 96.631 L 15.57 95.113 L 15.57 93.594 L 15.57 92.076 L 15.57 88.053 L 15.57 84.031 L 15.57 80.009 L 15.57 75.986 L 15.57 71.964 L 15.57 67.941 L 15.57 63.919 L 15.57 59.896 L 15.57 59.403 L 15.57 58.91 L 15.57 58.418 L 15.57 57.925 L 15.57 57.433 L 15.57 56.94 L 15.57 56.448 L 15.57 55.955 L 20.085 55.955 L 24.6 55.955 L 29.116 55.955 L 33.631 55.955 L 38.146 55.955 L 42.661 55.955 L 47.176 55.955 L 51.691 55.955 L 52.043 55.804 L 52.395 55.653 L 52.747 55.502 L 53.099 55.351 L 53.451 55.2 L 53.803 55.049 L 54.155 54.898 L 54.507 54.748 L 55.372 53.883 L 56.237 53.018 L 57.101 52.153 L 57.966 51.288 L 58.831 50.423 L 59.696 49.558 L 60.56 48.693 L 61.425 47.829 L 67.77 47.829 L 74.116 47.829 L 80.461 47.829 L 86.807 47.829 L 93.152 47.829 L 99.498 47.829 L 105.843 47.829 L 112.189 47.829 L 112.189 49.337 L 112.189 50.846 L 112.189 52.354 L 112.189 53.863 L 112.189 55.371 L 112.189 56.88 L 112.189 58.388 L 112.189 59.896 L 112.179 63.918 L 112.169 67.941 C 112.32 67.637 120.569 72.771 120.314 73.281 L 120.314 67.132 L 120.314 60.983 L 120.314 55.452 L 120.314 49.921 L 120.314 44.39 L 120.314 38.86 L 120.314 33.329 L 120.314 27.798 L 119.801 27.295 L 119.288 26.792 L 118.775 26.289 L 118.262 25.786 L 117.749 25.283 L 117.236 24.781 L 116.723 24.278 L 116.211 23.775 L 109.383 23.775 L 102.555 23.775 L 95.727 23.775 L 88.899 23.775 L 82.07 23.775 L 75.242 23.775 L 68.414 23.775 L 61.586 23.775 L 60.731 22.92 L 59.877 22.066 L 59.022 21.211 L 58.168 20.356 L 57.313 19.501 L 56.458 18.647 L 55.603 17.792 L 54.749 16.937 L 54.396 16.786 L 54.044 16.635 L 53.692 16.484 L 53.34 16.333 L 52.988 16.182 L 52.636 16.032 L 52.284 15.881 L 51.932 15.73 L 46.904 15.73 L 41.876 15.73 L 36.848 15.73 L 31.82 15.73 L 26.792 15.73 L 21.764 15.73 L 16.736 15.73 L 11.709 15.73 L 11.206 16.233 L 10.703 16.736 L 10.2 17.238 L 9.697 17.741 L 9.194 18.244 L 8.691 18.747 L 8.188 19.25 L 7.686 19.753 L 7.686 23.775 L 7.686 27.798 L 7.686 31.82 L 7.686 35.842 L 7.686 39.864 L 7.686 43.887 L 7.686 47.909 L 7.686 51.932 L 7.686 58.971 L 7.686 66.011 L 7.686 73.05 L 7.686 80.089 L 7.686 87.128 L 7.686 94.168 L 7.686 101.207 L 7.686 108.246 L 8.188 108.749 L 8.691 109.252 L 9.194 109.755 L 9.697 110.258 L 10.2 110.761 L 10.703 111.264 L 11.206 111.766 L 11.709 112.269 L 24.781 112.269 L 37.854 112.269 L 68.445 112.269 Z M 112.108 39.864 L 105.572 39.864 L 99.036 39.864 L 92.5 39.864 L 85.963 39.864 L 79.426 39.864 L 72.89 39.864 L 66.353 39.864 L 59.817 39.864 L 59.465 40.015 L 59.113 40.165 L 58.761 40.316 L 58.409 40.467 L 58.057 40.618 L 57.705 40.769 L 57.353 40.92 L 57.001 41.071 L 56.136 41.936 L 55.271 42.8 L 54.407 43.665 L 53.542 44.53 L 52.677 45.395 L 51.812 46.26 L 50.948 47.125 L 50.083 47.99 L 45.779 47.99 L 41.475 47.99 L 37.171 47.99 L 32.867 47.99 L 28.562 47.99 L 24.258 47.99 L 19.954 47.99 L 15.65 47.99 L 15.65 44.973 L 15.65 41.956 L 15.65 38.94 L 15.65 35.923 L 15.65 32.906 L 15.65 29.889 L 15.65 26.873 L 15.65 23.856 L 19.964 23.856 L 24.278 23.856 L 28.592 23.856 L 32.907 23.856 L 37.221 23.856 L 41.535 23.856 L 45.849 23.856 L 50.163 23.856 L 51.017 24.711 L 51.872 25.565 L 52.727 26.42 L 53.582 27.275 L 54.436 28.13 L 55.291 28.984 L 56.146 29.839 L 57.001 30.694 L 57.363 30.845 L 57.725 30.995 L 58.087 31.146 L 58.449 31.297 L 58.811 31.448 L 59.173 31.599 L 59.535 31.75 L 59.897 31.901 L 66.434 31.901 L 72.97 31.901 L 79.507 31.901 L 86.043 31.901 L 92.58 31.901 L 99.116 31.901 L 105.653 31.901 L 112.189 31.901 L 112.179 32.896 L 112.169 33.891 L 112.159 34.887 L 112.149 35.882 L 112.139 36.878 L 112.129 37.873 L 112.119 38.869 L 112.108 39.864 Z" fill="#424242" style=""/>
</svg>