<?xml version="1.0" encoding="utf-8"?>
<svg version="1.0" width="28" height="28" viewBox="0 0 128 128" preserveAspectRatio="xMidYMid meet" xmlns="http://www.w3.org/2000/svg">
	<path d="M 116.211 23.775 L 88.899 23.775 L 61.586 23.775 L 58.168 20.356 L 54.749 16.937 L 53.34 16.333 L 51.932 15.73 L 31.82 15.73 L 11.709 15.73 L 9.697 17.741 L 7.686 19.753 L 7.686 35.842 L 7.686 51.932 L 7.686 80.089 L 7.686 108.246 L 9.697 110.258 L 11.709 112.269 L 64 112.269 L 116.291 112.269 L 118.302 110.258 L 120.314 108.246 L 120.314 90.145 L 120.314 72.044 L 120.314 49.921 L 120.314 27.798 L 118.262 25.786 Z M 112.108 92.076 L 112.108 98.15 L 112.108 104.224 L 63.839 104.224 L 15.57 104.224 L 15.57 98.15 L 15.57 92.076 L 15.57 75.986 L 15.57 59.896 L 15.57 57.925 L 15.57 55.955 L 33.631 55.955 L 51.691 55.955 L 53.099 55.351 L 54.507 54.748 L 57.966 51.288 L 61.425 47.829 L 86.807 47.829 L 112.189 47.829 L 112.189 53.863 L 112.189 59.896 L 112.149 75.986 Z M 112.108 39.864 L 85.963 39.864 L 59.817 39.864 L 58.409 40.467 L 57.001 41.071 L 53.542 44.53 L 50.083 47.99 L 32.867 47.99 L 15.65 47.99 L 15.65 35.923 L 15.65 23.856 L 32.907 23.856 L 50.163 23.856 L 53.582 27.275 L 57.001 30.694 L 58.449 31.297 L 59.897 31.901 L 86.043 31.901 L 112.189 31.901 L 112.149 35.882 Z" fill="#424242" style=""/>
</svg>