<?xml version="1.0" encoding="utf-8"?>
<svg version="1.0" width="28" height="28" viewBox="0 0 128 128" preserveAspectRatio="xMidYMid meet" xmlns="http://www.w3.org/2000/svg">
  <path fill-rule="evenodd" clip-rule="evenodd" d="M 105.772 15.04 L 64.441 15.04 L 61.627 16.205 L 8.486 69.344 L 8.486 74.984 L 49.817 116.314 L 55.453 116.314 L 73.116 98.653 C 77.528 100.978 82.386 102.36 87.386 102.696 C 93.482 103.106 99.583 101.945 105.102 99.326 C 110.623 96.702 115.377 92.71 118.914 87.726 C 122.45 82.743 124.651 76.937 125.299 70.86 L 125.299 70.86 C 125.512 69.54 125.649 68.208 125.708 66.872 C 125.698 57.36 121.915 48.237 115.186 41.511 C 113.516 39.838 111.696 38.351 109.76 37.055 L 109.76 19.028 L 105.772 15.04 Z M 101.785 33.053 C 97.98 31.705 93.939 30.993 89.824 30.989 C 88.766 30.989 87.753 31.411 87.005 32.158 C 86.256 32.906 85.837 33.917 85.837 34.976 C 85.837 36.036 86.256 37.048 87.005 37.795 C 87.753 38.543 88.766 38.962 89.824 38.962 C 94 38.962 98.082 39.9 101.785 41.656 L 101.785 58.708 L 70.484 90.003 C 70.345 90.074 70.21 90.154 70.083 90.242 C 69.635 90.541 69.254 90.928 68.96 91.381 C 68.887 91.494 68.819 91.61 68.758 91.727 L 52.632 107.852 L 16.947 72.16 L 66.092 23.014 L 101.785 23.014 L 101.785 33.053 Z M 109.76 47.341 C 114.868 52.554 117.733 59.565 117.733 66.872 C 117.696 68.211 117.561 69.542 117.327 70.86 L 117.327 70.86 C 116.675 75.495 114.866 79.886 112.066 83.634 C 109.266 87.382 105.565 90.362 101.307 92.302 C 97.05 94.241 92.37 95.072 87.704 94.723 C 84.736 94.5 81.834 93.804 79.103 92.668 L 108.595 63.181 L 109.76 60.36 L 109.76 47.341 Z" fill="#424242" style=""/>
</svg>